<?xml version="1.0" encoding="utf-8"?>
<!-- Generator: Adobe Illustrator 27.5.0, SVG Export Plug-In . SVG Version: 6.00 Build 0)  -->
<svg version="1.1" xmlns="http://www.w3.org/2000/svg" xmlns:xlink="http://www.w3.org/1999/xlink" x="0px" y="0px"
	 viewBox="0 0 4975 4975" style="enable-background:new 0 0 4975 4975;" xml:space="preserve">
<g id="Layer_1">
	<radialGradient id="SVGID_1_" cx="2487.5" cy="2487.5" r="3776.8708" gradientUnits="userSpaceOnUse">
		<stop  offset="0" style="stop-color:#FFFFFF"/>
		<stop  offset="0.6" style="stop-color:#FFFFFF"/>
		<stop  offset="0.6697" style="stop-color:#FAFAFA"/>
		<stop  offset="0.7497" style="stop-color:#ECEDED"/>
		<stop  offset="0.8347" style="stop-color:#D5D6D7"/>
		<stop  offset="0.9225" style="stop-color:#B6B7B9"/>
		<stop  offset="1" style="stop-color:#939598"/>
	</radialGradient>
	<rect style="fill:url(#SVGID_1_);" width="4975" height="4975"/>
</g>
<g id="Isolation_Mode">
	
		<radialGradient id="SVGID_00000152970642397536936080000015909779782609418628_" cx="2593.3828" cy="50035.6367" r="1431.8353" gradientTransform="matrix(1 0 0 0.1803 0 -5684.2993)" gradientUnits="userSpaceOnUse">
		<stop  offset="0" style="stop-color:#808285"/>
		<stop  offset="0.1191" style="stop-color:#9D9FA2"/>
		<stop  offset="0.2679" style="stop-color:#BEC0C2"/>
		<stop  offset="0.4136" style="stop-color:#D9DADC"/>
		<stop  offset="0.5536" style="stop-color:#ECEDEE"/>
		<stop  offset="0.6852" style="stop-color:#F8F9F9"/>
		<stop  offset="0.8" style="stop-color:#FFFFFF"/>
	</radialGradient>
	
		<ellipse style="fill:url(#SVGID_00000152970642397536936080000015909779782609418628_);" cx="2593.383" cy="3337.125" rx="1533.71" ry="307.012"/>
</g>
<g id="Layer_5">
	<g>
		
			<radialGradient id="SVGID_00000031905279993400098370000015001083355856645011_" cx="2078.3374" cy="2737.6782" r="1676.3149" gradientUnits="userSpaceOnUse">
			<stop  offset="0" style="stop-color:#F7941D"/>
			<stop  offset="1" style="stop-color:#2B3990"/>
		</radialGradient>
		<path style="fill:url(#SVGID_00000031905279993400098370000015001083355856645011_);" d="M3833.934,2830.064
			c0-0.475,0.004-0.947,0.004-1.422c0-683.396-555.415-1237.397-1240.555-1237.397c-685.139,0-1240.554,554.001-1240.554,1237.397
			c0,0.475,0.004,0.947,0.004,1.422H3833.934z"/>
		<g>
			
				<radialGradient id="SVGID_00000078002560267957274890000011469774830219185850_" cx="2128.8022" cy="2193.1445" r="209.3725" gradientUnits="userSpaceOnUse">
				<stop  offset="0" style="stop-color:#F1F2F2"/>
				<stop  offset="0.4601" style="stop-color:#EFF0F1"/>
				<stop  offset="0.6258" style="stop-color:#EAEBEB"/>
				<stop  offset="0.744" style="stop-color:#E0E1E2"/>
				<stop  offset="0.8395" style="stop-color:#D2D3D5"/>
				<stop  offset="0.9204" style="stop-color:#C0C2C4"/>
				<stop  offset="0.9917" style="stop-color:#AAACAF"/>
				<stop  offset="1" style="stop-color:#A7A9AC"/>
			</radialGradient>
			
				<circle style="fill:url(#SVGID_00000078002560267957274890000011469774830219185850_);stroke:#F7941D;stroke-width:0.5438;stroke-miterlimit:10;" cx="2128.802" cy="2193.145" r="209.372"/>
			<path style="opacity:0.26;fill:#D1D3D4;" d="M2155.435,2071.638c0,0,7.136,28.542,16.055,28.542s8.919,32.11,8.919,32.11
				s24.975,35.678,14.271,48.165c-10.703,12.487-45.715,39.245-52.292,44.597c-6.576,5.352-27.983,23.191-40.47,28.542
				c-12.487,5.352-48.165,16.055-49.949,26.758c-1.784,10.703-0.885,37.462,9.369,48.165s44.148,26.759,44.148,26.759
				s51.277-7.136,61.316-24.975c10.039-17.839,26.094,1.784,31.446,1.784s44.597-44.597,48.165-55.3
				c3.568-10.704,12.487-35.678,21.407-42.813c8.919-7.136,16.055-57.085,14.271-62.437c-1.784-5.352-1.784-23.19-12.487-39.245
				c-10.703-16.056-21.406-24.975-21.406-24.975s-10.704-10.704-21.407-35.678c-10.703-24.975-17.839-26.759-23.19-24.975
				c-5.352,1.784,3.568,26.758-12.487,17.839C2175.058,2055.583,2150.907,2057.752,2155.435,2071.638z"/>
		</g>
		<path style="fill-rule:evenodd;clip-rule:evenodd;" d="M3833.938,2830.064c-272.308-58.911-704.835-94.111-1221.621-94.111
			s-987.18,35.2-1259.487,94.111H3833.938z"/>
		<polygon style="fill:#FFF200;" points="3024,1998.596 3029.264,2009.262 3041.034,2010.972 3032.518,2019.274 3034.527,2030.997 
			3024,2025.462 3013.473,2030.997 3015.482,2019.274 3006.966,2010.972 3018.736,2009.262 		"/>
		<polygon style="opacity:0.45;fill:#FFF200;" points="2821.473,1900.73 2826.736,1911.396 2838.507,1913.106 2829.99,1921.408 
			2832,1933.131 2821.473,1927.596 2810.945,1933.131 2812.955,1921.408 2804.438,1913.106 2816.209,1911.396 		"/>
		<polygon style="opacity:0.45;fill:#FFF200;" points="2736,2106.921 2741.264,2117.587 2753.034,2119.297 2744.518,2127.599 
			2746.527,2139.322 2736,2133.787 2725.473,2139.322 2727.482,2127.599 2718.966,2119.297 2730.736,2117.587 		"/>
		<polygon style="opacity:0.87;fill:#FFF200;" points="3504.017,2139.322 3509.28,2149.988 3521.051,2151.698 3512.534,2160 
			3514.544,2171.723 3504.017,2166.188 3493.489,2171.723 3495.499,2160 3486.982,2151.698 3498.753,2149.988 		"/>
		<polygon style="opacity:0.45;fill:#FFF200;" points="2892.449,2520.172 2897.713,2530.838 2909.483,2532.548 2900.967,2540.85 
			2902.977,2552.572 2892.449,2547.038 2881.922,2552.572 2883.932,2540.85 2875.415,2532.548 2887.186,2530.838 		"/>
		<polygon style="fill:#FFF200;" points="2926.518,1711.322 2931.781,1721.988 2943.552,1723.698 2935.035,1732 2937.045,1743.723 
			2926.518,1738.188 2915.99,1743.723 2918,1732 2909.483,1723.698 2921.254,1721.988 		"/>
		<polygon style="fill:#FFF200;" points="3315.482,2139.322 3320.746,2149.988 3332.517,2151.698 3324,2160 3326.01,2171.723 
			3315.482,2166.188 3304.955,2171.723 3306.965,2160 3298.448,2151.698 3310.219,2149.988 		"/>
		<polygon style="fill:#FFF200;" points="3609.482,2503.971 3614.746,2514.637 3626.517,2516.348 3618,2524.649 3620.01,2536.372 
			3609.482,2530.838 3598.955,2536.372 3600.965,2524.649 3592.448,2516.348 3604.219,2514.637 		"/>
		<polygon style="opacity:0.41;fill:#FFF200;" points="2909.483,2251.695 2914.747,2262.361 2926.518,2264.072 2918.001,2272.374 
			2920.011,2284.096 2909.483,2278.562 2898.956,2284.096 2900.966,2272.374 2892.449,2264.072 2904.22,2262.361 		"/>
		<polygon style="fill:#FFF200;" points="3100.104,1857.753 3102.701,1863.014 3108.507,1863.857 3104.306,1867.953 
			3105.297,1873.735 3100.104,1871.005 3094.912,1873.735 3095.903,1867.953 3091.702,1863.857 3097.508,1863.014 		"/>
		<polygon style="fill:#FFF200;" points="2736,1735.731 2738.597,1740.992 2744.402,1741.836 2740.201,1745.931 2741.192,1751.713 
			2736,1748.983 2730.808,1751.713 2731.799,1745.931 2727.598,1741.836 2733.403,1740.992 		"/>
		<polygon style="fill:#FFF200;" points="2532.201,1695.34 2534.798,1700.601 2540.604,1701.444 2536.402,1705.54 
			2537.394,1711.322 2532.201,1708.592 2527.009,1711.322 2528,1705.54 2523.799,1701.444 2529.604,1700.601 		"/>
		<polygon style="opacity:0.43;fill:#FFF200;" points="3137.403,1884.748 3140,1890.009 3145.806,1890.853 3141.604,1894.948 
			3142.596,1900.73 3137.403,1898 3132.211,1900.73 3133.202,1894.948 3129.001,1890.853 3134.807,1890.009 		"/>
		<polygon style="opacity:0.43;fill:#FFF200;" points="2308.402,1743.723 2310.999,1748.983 2316.805,1749.827 2312.604,1753.922 
			2313.595,1759.705 2308.402,1756.975 2303.21,1759.705 2304.201,1753.922 2300,1749.827 2305.806,1748.983 		"/>
		<polygon style="opacity:0.43;fill:#FFF200;" points="3609.482,2317.319 3612.079,2322.58 3617.885,2323.424 3613.684,2327.519 
			3614.675,2333.301 3609.482,2330.571 3604.29,2333.301 3605.281,2327.519 3601.08,2323.424 3606.886,2322.58 		"/>
		<polygon style="fill:#FFF200;" points="3236.402,2202.664 3238.999,2207.925 3244.805,2208.769 3240.604,2212.864 
			3241.595,2218.646 3236.402,2215.916 3231.21,2218.646 3232.201,2212.864 3228,2208.769 3233.806,2207.925 		"/>
		<polygon style="opacity:0.45;fill:#FFF200;" points="3268,2232.63 3270.597,2237.891 3276.402,2238.734 3272.201,2242.83 
			3273.192,2248.612 3268,2245.882 3262.808,2248.612 3263.799,2242.83 3259.598,2238.734 3265.403,2237.891 		"/>
		<polygon style="fill:#FFF200;" points="3244.805,2267.896 3247.401,2273.156 3253.207,2274 3249.006,2278.095 3249.997,2283.877 
			3244.805,2281.147 3239.612,2283.877 3240.604,2278.095 3236.402,2274 3242.208,2273.156 		"/>
		<polygon style="fill:#FFF200;" points="3108.507,2267.896 3111.104,2273.156 3116.909,2274 3112.708,2278.095 3113.699,2283.877 
			3108.507,2281.147 3103.314,2283.877 3104.306,2278.095 3100.104,2274 3105.91,2273.156 		"/>
		<polygon style="fill:#FFF200;" points="3198.201,2057.8 3200.798,2063.061 3206.604,2063.905 3202.402,2068 3203.394,2073.782 
			3198.201,2071.052 3193.009,2073.782 3194,2068 3189.799,2063.905 3195.604,2063.061 		"/>
		<polygon style="fill:#FFF200;" points="3392,2057.8 3394.597,2063.061 3400.402,2063.905 3396.201,2068 3397.192,2073.782 
			3392,2071.052 3386.808,2073.782 3387.799,2068 3383.598,2063.905 3389.403,2063.061 		"/>
		<polygon style="fill:#FFF200;" points="3304.448,1966.784 3308.019,1974.017 3316.002,1975.177 3310.225,1980.808 
			3311.588,1988.759 3304.448,1985.005 3297.309,1988.759 3298.672,1980.808 3292.895,1975.177 3300.878,1974.017 		"/>
		<polygon style="fill:#FFF200;" points="3344.07,2333.301 3347.641,2340.535 3355.624,2341.695 3349.847,2347.326 
			3351.21,2355.276 3344.07,2351.522 3336.931,2355.276 3338.294,2347.326 3332.517,2341.695 3340.5,2340.535 		"/>
		<polygon style="fill:#FFF200;" points="3367.178,2476.512 3370.748,2483.746 3378.731,2484.906 3372.954,2490.537 
			3374.317,2498.487 3367.178,2494.733 3360.038,2498.487 3361.401,2490.537 3355.624,2484.906 3363.607,2483.746 		"/>
		<polygon style="fill:#FFF200;" points="3748.86,2671.465 3752.431,2678.697 3760.414,2679.857 3754.637,2685.489 3756,2693.439 
			3748.86,2689.686 3741.721,2693.439 3743.084,2685.489 3737.307,2679.857 3745.29,2678.697 		"/>
		<polygon style="fill:#FFF200;" points="3515.57,2598.425 3519.141,2605.658 3527.124,2606.818 3521.347,2612.449 3522.71,2620.4 
			3515.57,2616.646 3508.431,2620.4 3509.794,2612.449 3504.017,2606.818 3512,2605.658 		"/>
		<polygon style="fill:#FFF200;" points="3292.895,2598.425 3296.465,2605.658 3304.448,2606.818 3298.671,2612.449 
			3300.034,2620.4 3292.895,2616.646 3285.755,2620.4 3287.118,2612.449 3281.341,2606.818 3289.324,2605.658 		"/>
		<polygon style="fill:#FFF200;" points="3626.517,2419.976 3630.087,2427.209 3638.07,2428.369 3632.293,2434 3633.656,2441.951 
			3626.517,2438.197 3619.377,2441.951 3620.74,2434 3614.963,2428.369 3622.946,2427.209 		"/>
		<polygon style="fill:#FFF200;" points="3486.982,2374.024 3490.553,2381.258 3498.536,2382.418 3492.759,2388.049 3494.122,2396 
			3486.982,2392.246 3479.843,2396 3481.206,2388.049 3475.429,2382.418 3483.412,2381.258 		"/>
		<polygon style="fill:#FFF200;" points="3472.224,2218.646 3475.794,2225.879 3483.777,2227.04 3478,2232.67 3479.363,2240.621 
			3472.224,2236.867 3465.084,2240.621 3466.447,2232.67 3460.67,2227.04 3468.653,2225.879 		"/>
		<polygon style="fill:#FFF200;" points="3100.104,2465.525 3103.675,2472.758 3111.658,2473.918 3105.881,2479.549 
			3107.244,2487.5 3100.104,2483.746 3092.965,2487.5 3094.328,2479.549 3088.551,2473.918 3096.534,2472.758 		"/>
		<g>
			<rect x="2834.639" y="2663.707" style="fill-rule:evenodd;clip-rule:evenodd;" width="74.834" height="149.224"/>
			<rect x="2909.473" y="2708.007" width="93.684" height="104.924"/>
			<rect x="1850.688" y="2745.377" width="61.622" height="67.554"/>
			<g>
				<rect x="2795.271" y="2476.857" width="66.02" height="335.759"/>
				<rect x="2846.201" y="2437.245" width="1.887" height="46.214"/>
			</g>
			<rect x="2548.59" y="2609.362" width="45.271" height="203.568"/>
			<path d="M2704.924,2393.231v419.699h78.871v-419.699H2704.924z M2713.234,2400.071h-5.66v-5.031h5.66V2400.071z
				 M2720.779,2400.071h-5.658v-5.031h5.658V2400.071z M2728.324,2400.071h-5.658v-5.031h5.658V2400.071z M2735.871,2400.071h-5.66
				v-5.031h5.66V2400.071z M2743.416,2400.071h-5.658v-5.031h5.658V2400.071z M2750.961,2400.071h-5.658v-5.031h5.658V2400.071z
				 M2758.508,2400.071h-5.66v-5.031h5.66V2400.071z M2766.053,2400.071h-5.66v-5.031h5.66V2400.071z M2773.598,2400.071h-5.658
				v-5.031h5.658V2400.071z M2781.145,2400.071h-5.66v-5.031h5.66V2400.071z"/>
			<rect x="2538.189" y="2301.669" width="154.697" height="511.262"/>
			<g>
				<rect x="1975.806" y="2520.641" width="75.463" height="292.29"/>
				<g>
					<path d="M1985.074,2530.13c-2.496,0-4.942-1.013-6.702-2.779c-1.768-1.768-2.78-4.214-2.78-6.71s1.012-4.942,2.78-6.709
						c1.76-1.767,4.206-2.779,6.702-2.779s4.943,1.013,6.709,2.779s2.78,4.213,2.78,6.709s-1.013,4.942-2.78,6.71
						C1990.017,2529.117,1987.576,2530.13,1985.074,2530.13z"/>
					<path d="M2027.769,2528.859c-1.396,0.805-3.018,1.271-4.747,1.271l0,0c-1.723,0-3.345-0.466-4.742-1.271l0,0
						c-1.395,0.805-3.017,1.271-4.741,1.271l0,0c-1.729,0-3.352-0.466-4.748-1.271l0,0c-1.396,0.805-3.011,1.271-4.741,1.271l0,0
						c-1.729,0-3.352-0.466-4.748-1.271l0,0c-1.396,0.805-3.011,1.271-4.74,1.271l0,0c-5.238,0-9.489-4.252-9.489-9.489l0,0
						c0-5.237,4.251-9.488,9.489-9.488l0,0c1.729,0,3.345,0.466,4.74,1.271l0,0c1.396-0.805,3.019-1.271,4.748-1.271l0,0
						c1.729,0,3.345,0.466,4.741,1.271l0,0c1.396-0.805,3.019-1.271,4.748-1.271l0,0c1.724,0,3.346,0.466,4.741,1.271l0,0
						c1.396-0.805,3.019-1.271,4.742-1.271l0,0c1.729,0,3.352,0.466,4.747,1.271l0,0c1.396-0.805,3.012-1.271,4.741-1.271l0,0
						c5.238,0,9.489,4.251,9.489,9.488l0,0c0,5.237-4.25,9.489-9.489,9.489l0,0
						C2030.781,2530.13,2029.165,2529.664,2027.769,2528.859z"/>
					<path d="M2041.999,2530.13c-2.497,0-4.943-1.013-6.709-2.779c-1.767-1.768-2.779-4.214-2.779-6.71s1.012-4.942,2.779-6.709
						c1.767-1.767,4.213-2.779,6.709-2.779c2.496,0,4.942,1.013,6.709,2.779s2.779,4.213,2.779,6.709s-1.012,4.942-2.779,6.71
						C2046.941,2529.117,2044.495,2530.13,2041.999,2530.13z"/>
				</g>
				<rect x="2020.934" y="2406.2" width="4.716" height="133.305"/>
				<rect x="2004.271" y="2447.7" width="1.258" height="72.94"/>
			</g>
			<rect x="2126.017" y="2547.214" width="58.718" height="265.717"/>
			<g>
				<polygon points="2102.921,2473.116 2118.146,2499.486 2133.37,2525.854 2102.921,2525.854 2072.473,2525.854 2087.697,2499.486 
									"/>
				<rect x="2102.292" y="2360.366" width="1.258" height="130.09"/>
				<rect x="2069.05" y="2525.854" style="fill-rule:evenodd;clip-rule:evenodd;" width="70.258" height="287.076"/>
			</g>
			<g>
				<polygon points="2383.167,2277.421 2398.392,2318.978 2413.616,2360.531 2383.167,2360.531 2352.718,2360.531 
					2367.943,2318.978 				"/>
				<rect x="2349.295" y="2360.531" style="fill-rule:evenodd;clip-rule:evenodd;" width="70.258" height="452.399"/>
			</g>
			<path d="M2944.629,2558.556v-1.558h-1.945c-5.256-11.284-16.158-19.403-29.088-20.684l-3.105-27.958l-2.377,27.828
				c-13.818,0.714-25.553,9.215-30.967,21.188h-2.041v1.183h-3.441v254.375h75.617v-158.98v-42.041v-53.354H2944.629z"/>
			<rect x="2475.597" y="2722.097" width="45.639" height="90.834"/>
			<rect x="2580.605" y="2506.613" width="89.289" height="306.317"/>
			<rect x="2674.924" y="2689.163" width="40.127" height="123.768"/>
			<rect x="2814.518" y="2645.221" width="40.242" height="167.71"/>
			<g>
				<polygon style="fill-rule:evenodd;clip-rule:evenodd;" points="2522.477,2050.048 2522.477,2038.51 2517.742,2038.51 
					2517.742,2021.807 2503.441,2021.807 2503.441,2038.51 2487.796,2038.51 2487.796,2050.048 2466.708,2050.048 
					2466.708,2039.784 2443.383,2039.784 2443.383,2050.048 2419.082,2050.048 2419.082,2812.931 2532.111,2812.931 
					2532.111,2050.048 				"/>
				<rect x="2448.816" y="1924.908" style="fill-rule:evenodd;clip-rule:evenodd;" width="12.161" height="186.123"/>
				<rect x="2508.867" y="1777.77" style="fill-rule:evenodd;clip-rule:evenodd;" width="2.514" height="288.617"/>
			</g>
			<g>
				<polygon style="fill-rule:evenodd;clip-rule:evenodd;" points="2206.313,2339.31 2206.313,2229.889 2155.376,2229.889 
					2155.376,2812.931 2340.375,2812.931 2340.375,2339.31 				"/>
				<rect x="2219.633" y="2322.806" style="fill-rule:evenodd;clip-rule:evenodd;" width="103.763" height="59.261"/>
				<rect x="2293.154" y="2098.597" style="fill-rule:evenodd;clip-rule:evenodd;" width="5.66" height="283.47"/>
				<rect x="2271.515" y="2253.296" style="fill-rule:evenodd;clip-rule:evenodd;" width="8.433" height="77.985"/>
				<rect x="2181.846" y="2119.35" style="fill-rule:evenodd;clip-rule:evenodd;" width="5.66" height="237.53"/>
			</g>
			<rect x="2275.731" y="2534.839" width="118.808" height="278.092"/>
			<rect x="2032.51" y="2675.128" width="69.782" height="137.803"/>
			<rect x="2765.471" y="2652.444" width="49.047" height="160.486"/>
			<g>
				<rect x="1884.643" y="2463.729" style="fill-rule:evenodd;clip-rule:evenodd;" width="80.486" height="349.201"/>
				<rect x="1899.733" y="2440.623" style="fill-rule:evenodd;clip-rule:evenodd;" width="12.576" height="46.214"/>
				<rect x="1924.885" y="2396.295" style="fill-rule:evenodd;clip-rule:evenodd;" width="27.667" height="97.225"/>
			</g>
			<g>
				<rect x="1795.354" y="2566.704" style="fill-rule:evenodd;clip-rule:evenodd;" width="83.001" height="246.227"/>
				<rect x="1755.74" y="2641.9" style="fill-rule:evenodd;clip-rule:evenodd;" width="59.106" height="171.03"/>
				<rect x="1825.536" y="2435.9" style="fill-rule:evenodd;clip-rule:evenodd;" width="11.318" height="170.244"/>
				<rect x="1848.172" y="2504.122" style="fill-rule:evenodd;clip-rule:evenodd;" width="2.515" height="70.947"/>
			</g>
			<g>
				<rect x="2966.686" y="2566.704" style="fill-rule:evenodd;clip-rule:evenodd;" width="72.939" height="246.227"/>
				<rect x="2974.23" y="2549.948" style="fill-rule:evenodd;clip-rule:evenodd;" width="57.85" height="33.512"/>
			</g>
			<g>
				<rect x="3051.836" y="2669.015" style="fill-rule:evenodd;clip-rule:evenodd;" width="72.941" height="143.916"/>
				<rect x="3059.381" y="2612.211" style="fill-rule:evenodd;clip-rule:evenodd;" width="57.85" height="62.307"/>
				<rect x="3083.355" y="2540.513" width="9.902" height="71.091"/>
			</g>
			<rect x="1924.885" y="2666.786" width="107.625" height="146.145"/>
			<polygon style="fill-rule:evenodd;clip-rule:evenodd;" points="1748.127,2812.931 1693.434,2812.931 1693.434,2701.67 
				1748.127,2660.257 			"/>
			<rect x="1665.146" y="2717.396" style="fill-rule:evenodd;clip-rule:evenodd;" width="55.635" height="93.464"/>
			<rect x="3187.365" y="2715.324" style="fill-rule:evenodd;clip-rule:evenodd;" width="41.496" height="97.606"/>
			<rect x="3123.287" y="2668.275" style="fill-rule:evenodd;clip-rule:evenodd;" width="61.498" height="144.655"/>
			<rect x="2507.09" y="2557.485" width="49.498" height="255.445"/>
			<rect x="2465.103" y="2694.299" width="84.116" height="118.632"/>
			<rect x="3025.02" y="2722.411" width="58.336" height="90.52"/>
		</g>
	</g>
</g>
</svg>
